<svg width="63" height="49" viewBox="0 0 63 49" fill="none" xmlns="http://www.w3.org/2000/svg">
<path id="Vector" d="M53.4279 4.66678C49.3827 2.81033 45.1142 1.48535 40.7288 0.724876C40.6891 0.718185 40.6483 0.723964 40.612 0.741419C40.5757 0.758874 40.5457 0.787147 40.5261 0.822351C39.9763 1.7971 39.3681 3.07208 38.9431 4.07023C34.216 3.35284 29.4076 3.35284 24.6805 4.07023C24.2064 2.95831 23.6701 1.87397 23.0741 0.822351C23.0541 0.787533 23.024 0.759585 22.9878 0.742186C22.9517 0.724788 22.911 0.718753 22.8714 0.724876C18.485 1.48128 14.2156 2.80695 10.1723 4.66678C10.1377 4.67998 10.1087 4.70479 10.0904 4.73696C2.00385 16.82 -0.214688 28.6067 0.873136 40.2453C0.877035 40.2998 0.912126 40.3544 0.955015 40.3895C5.66395 43.8776 10.931 46.5408 16.5316 48.2655C16.5711 48.278 16.6136 48.2775 16.6529 48.2642C16.6921 48.2509 16.7261 48.2254 16.7499 48.1914C17.9508 46.5539 19.0191 44.8266 19.9393 43.0097C19.9585 42.9722 19.9651 42.9296 19.958 42.8882C19.951 42.8467 19.9308 42.8086 19.9003 42.7796C19.8802 42.7606 19.8563 42.746 19.8301 42.7367C18.1503 42.0911 16.5234 41.3155 14.9642 40.4168C14.9206 40.3921 14.8882 40.3516 14.8737 40.3037C14.8592 40.2558 14.8637 40.2042 14.8862 40.1595C14.8995 40.1304 14.9195 40.105 14.9447 40.0854C15.2722 39.8398 15.5997 39.5824 15.9116 39.3251C15.9392 39.3029 15.9722 39.2887 16.0073 39.2839C16.0423 39.2791 16.078 39.2839 16.1105 39.2978C26.322 43.961 37.3757 43.961 47.4624 39.2978C47.4961 39.2832 47.5331 39.278 47.5695 39.2829C47.6059 39.2877 47.6403 39.3023 47.6691 39.3251C47.981 39.5824 48.3085 39.8398 48.636 40.0854C48.6626 40.1048 48.6839 40.1305 48.6981 40.1601C48.7123 40.1898 48.7189 40.2225 48.7173 40.2553C48.7158 40.2881 48.7061 40.3201 48.6892 40.3483C48.6723 40.3764 48.6487 40.4 48.6204 40.4168C47.0648 41.3237 45.4358 42.0984 43.7506 42.7328C43.7237 42.7425 43.6993 42.7581 43.6791 42.7783C43.6589 42.7985 43.6433 42.8229 43.6336 42.8498C43.6246 42.8758 43.621 42.9034 43.623 42.9309C43.625 42.9584 43.6326 42.9852 43.6453 43.0097C44.5811 44.8227 45.6533 46.5539 46.8308 48.1914C46.8546 48.2254 46.8886 48.2509 46.9278 48.2642C46.9671 48.2775 47.0096 48.278 47.0491 48.2655C52.6591 46.5462 57.9347 43.8826 62.6491 40.3895C62.6727 40.3732 62.6923 40.3517 62.7065 40.3267C62.7207 40.3018 62.729 40.2739 62.731 40.2453C64.0332 26.7898 60.5514 15.1005 53.5059 4.74086C53.4988 4.72375 53.4882 4.70831 53.4748 4.69555C53.4613 4.68279 53.4454 4.67299 53.4279 4.66678ZM21.4638 33.1568C18.3875 33.1568 15.857 30.334 15.857 26.8716C15.857 23.4054 18.3407 20.5825 21.4638 20.5825C24.6103 20.5825 27.1174 23.4288 27.0706 26.8716C27.0706 30.334 24.5869 33.1568 21.4638 33.1568ZM42.191 33.1568C39.1185 33.1568 36.5842 30.334 36.5842 26.8716C36.5842 23.4054 39.0679 20.5825 42.191 20.5825C45.3375 20.5825 47.8484 23.4288 47.7977 26.8716C47.7977 30.334 45.3375 33.1568 42.191 33.1568Z" fill="black"/>
</svg>
