<svg width="63" height="63" viewBox="0 0 63 63" fill="none" xmlns="http://www.w3.org/2000/svg">
<g id="Facebook" clip-path="url(#clip0_19_135)">
<path id="Vector" d="M62.3836 31.383C62.3836 14.0478 48.4172 -0.00439453 31.1912 -0.00439453C13.9573 -0.000495478 -0.00907135 14.0478 -0.00907135 31.3869C-0.00907135 47.0494 11.3996 60.0332 26.3095 62.3883V40.4561H18.3945V31.3869H26.3173V24.4661C26.3173 16.6017 30.9767 12.2581 38.1003 12.2581C41.5158 12.2581 45.0835 12.8703 45.0835 12.8703V20.5904H41.1493C37.2776 20.5904 36.0689 23.0117 36.0689 25.4954V31.383H44.717L43.3367 40.4522H36.065V62.3844C50.9749 60.0293 62.3836 47.0455 62.3836 31.383Z" fill="black"/>
</g>
<defs>
<clipPath id="clip0_19_135">
<rect width="62.3848" height="62.3848" fill="white"/>
</clipPath>
</defs>
</svg>
