<svg width="64" height="63" viewBox="0 0 64 63" fill="none" xmlns="http://www.w3.org/2000/svg">
<g id="Instagram" clip-path="url(#clip0_19_138)">
<path id="Vector" d="M31.9621 0C23.4973 0 22.4328 0.0389905 19.1069 0.187155C15.781 0.343117 13.5157 0.86559 11.5311 1.6376C9.44934 2.42061 7.56375 3.64884 6.00611 5.23643C4.41949 6.79486 3.19141 8.68023 2.40729 10.7614C1.63527 12.7421 1.1089 15.0114 0.956838 18.3255C0.808674 21.6592 0.769684 22.7198 0.769684 31.1963C0.769684 39.6651 0.808674 40.7256 0.956838 44.0515C1.1128 47.3735 1.63527 49.6388 2.40729 51.6235C3.20659 53.6744 4.27103 55.4133 6.00611 57.1484C7.73729 58.8835 9.47627 59.9518 11.5272 60.7472C13.5157 61.5193 15.7771 62.0456 19.0991 62.1977C22.4289 62.3459 23.4895 62.3848 31.9621 62.3848C40.4347 62.3848 41.4914 62.3459 44.8212 62.1977C48.1393 62.0417 50.4124 61.5193 52.397 60.7472C54.4774 59.9639 56.3617 58.7356 57.9181 57.1484C59.6532 55.4133 60.7176 53.6744 61.5169 51.6235C62.285 49.6388 62.8114 47.3735 62.9674 44.0515C63.1155 40.7256 63.1545 39.6651 63.1545 31.1924C63.1545 22.7198 63.1155 21.6592 62.9674 18.3294C62.8114 15.0114 62.285 12.7421 61.5169 10.7614C60.7329 8.68017 59.5048 6.79479 57.9181 5.23643C56.3609 3.64825 54.4752 2.41993 52.3931 1.6376C50.4046 0.86559 48.1354 0.339218 44.8173 0.187155C41.4875 0.0389905 40.4309 0 31.9543 0H31.966H31.9621ZM29.1665 5.62243H31.966C40.2944 5.62243 41.2808 5.64973 44.5677 5.80179C47.609 5.93826 49.2622 6.44903 50.3617 6.87403C51.8161 7.43939 52.8571 8.11783 53.9489 9.20956C55.0406 10.3013 55.7151 11.3384 56.2805 12.7967C56.7094 13.8923 57.2163 15.5455 57.3527 18.5868C57.5048 21.8737 57.536 22.8601 57.536 31.1846C57.536 39.5091 57.5048 40.4995 57.3527 43.7864C57.2163 46.8276 56.7055 48.4769 56.2805 49.5765C55.7804 50.9308 54.9822 52.1554 53.945 53.1597C52.8532 54.2514 51.8161 54.926 50.3578 55.4913C49.2661 55.9202 47.6129 56.4271 44.5677 56.5675C41.2808 56.7156 40.2944 56.7507 31.966 56.7507C23.6376 56.7507 22.6473 56.7156 19.3604 56.5675C16.3191 56.4271 14.6698 55.9202 13.5703 55.4913C12.2154 54.9919 10.9896 54.1952 9.98315 53.1597C8.94503 52.1539 8.14561 50.9281 7.64371 49.5726C7.21872 48.4769 6.70794 46.8237 6.57148 43.7825C6.42331 40.4956 6.39212 39.5091 6.39212 31.1768C6.39212 22.8485 6.42331 21.8659 6.57148 18.579C6.71184 15.5377 7.21872 13.8845 7.64761 12.785C8.21298 11.3306 8.89141 10.2896 9.98315 9.19787C11.0749 8.10613 12.112 7.4316 13.5703 6.86623C14.6698 6.43734 16.3191 5.93046 19.3604 5.79009C22.2379 5.65753 23.353 5.61854 29.1665 5.61464V5.62243ZM48.615 10.8004C48.1234 10.8004 47.6367 10.8972 47.1825 11.0853C46.7284 11.2734 46.3158 11.5491 45.9682 11.8967C45.6206 12.2443 45.3449 12.6569 45.1568 13.111C44.9687 13.5652 44.8719 14.0519 44.8719 14.5435C44.8719 15.035 44.9687 15.5218 45.1568 15.9759C45.3449 16.43 45.6206 16.8427 45.9682 17.1902C46.3158 17.5378 46.7284 17.8135 47.1825 18.0016C47.6367 18.1897 48.1234 18.2866 48.615 18.2866C49.6077 18.2866 50.5598 17.8922 51.2617 17.1902C51.9637 16.4883 52.3581 15.5362 52.3581 14.5435C52.3581 13.5507 51.9637 12.5987 51.2617 11.8967C50.5598 11.1947 49.6077 10.8004 48.615 10.8004ZM31.966 15.1751C29.8413 15.142 27.7312 15.5318 25.7586 16.322C23.786 17.1122 21.9903 18.2868 20.4761 19.7776C18.9618 21.2685 17.7593 23.0456 16.9384 25.0056C16.1176 26.9657 15.6949 29.0694 15.6949 31.1944C15.6949 33.3193 16.1176 35.4231 16.9384 37.3831C17.7593 39.3431 18.9618 41.1203 20.4761 42.6111C21.9903 44.1019 23.786 45.2766 25.7586 46.0668C27.7312 46.8569 29.8413 47.2468 31.966 47.2136C36.1713 47.148 40.1821 45.4314 43.1328 42.4344C46.0835 39.4373 47.7373 35.4002 47.7373 31.1944C47.7373 26.9886 46.0835 22.9514 43.1328 19.9544C40.1821 16.9573 36.1713 15.2407 31.966 15.1751ZM31.966 20.7937C34.7239 20.7937 37.3689 21.8892 39.3191 23.8394C41.2692 25.7895 42.3648 28.4345 42.3648 31.1924C42.3648 33.9504 41.2692 36.5953 39.3191 38.5455C37.3689 40.4956 34.7239 41.5912 31.966 41.5912C29.2081 41.5912 26.5631 40.4956 24.613 38.5455C22.6628 36.5953 21.5672 33.9504 21.5672 31.1924C21.5672 28.4345 22.6628 25.7895 24.613 23.8394C26.5631 21.8892 29.2081 20.7937 31.966 20.7937Z" fill="black"/>
</g>
<defs>
<clipPath id="clip0_19_138">
<rect width="62.3848" height="62.3848" fill="white" transform="translate(0.769684)"/>
</clipPath>
</defs>
</svg>
